<mxfile host="app.diagrams.net" agent="Mozilla/5.0 (X11; Linux x86_64) AppleWebKit/537.36 (KHTML, like Gecko) Chrome/122.0.0.0 YaBrowser/24.4.0.0 Safari/537.36" version="24.7.7">
  <diagram id="XQk3q1c9aqMZty__fpCS" name="Страница — 2">
    <mxGraphModel dx="1314" dy="804" grid="0" gridSize="10" guides="1" tooltips="1" connect="1" arrows="1" fold="1" page="1" pageScale="1" pageWidth="1169" pageHeight="827" math="0" shadow="0">
      <root>
        <mxCell id="0" />
        <mxCell id="1" parent="0" />
        <mxCell id="echtbpryEylEQLGBcHq4-1" value="" style="rounded=0;whiteSpace=wrap;html=1;strokeColor=none;" vertex="1" parent="1">
          <mxGeometry width="1166" height="826" as="geometry" />
        </mxCell>
        <mxCell id="2QYO7XHkF7nEgOcJqNKI-1" value="" style="rounded=0;whiteSpace=wrap;html=1;fillColor=#f5f5f5;strokeColor=none;fontColor=#333333;" parent="1" vertex="1">
          <mxGeometry x="4" y="657" width="1161" height="166" as="geometry" />
        </mxCell>
        <mxCell id="2QYO7XHkF7nEgOcJqNKI-2" value="&lt;div style=&quot;border-color: var(--border-color); font-family: Helvetica; font-size: 12px; font-style: normal; font-variant-ligatures: normal; font-variant-caps: normal; font-weight: 400; letter-spacing: normal; orphans: 2; text-align: left; text-indent: 0px; text-transform: none; widows: 2; word-spacing: 0px; -webkit-text-stroke-width: 0px; text-decoration-thickness: initial; text-decoration-style: initial; text-decoration-color: initial;&quot;&gt;&lt;/div&gt;&lt;b style=&quot;border-color: var(--border-color); font-family: Helvetica; font-size: 12px; font-style: normal; font-variant-ligatures: normal; font-variant-caps: normal; letter-spacing: normal; orphans: 2; text-align: left; text-indent: 0px; text-transform: none; widows: 2; word-spacing: 0px; -webkit-text-stroke-width: 0px; text-decoration-thickness: initial; text-decoration-style: initial; text-decoration-color: initial;&quot;&gt;Доставка цветов в палатку:&lt;br style=&quot;border-color: var(--border-color);&quot;&gt;&lt;/b&gt;&lt;span style=&quot;border-color: var(--border-color); font-family: Helvetica; font-size: 12px; font-style: normal; font-variant-ligatures: normal; font-variant-caps: normal; font-weight: 400; letter-spacing: normal; orphans: 2; text-align: left; text-indent: 0px; text-transform: none; widows: 2; word-spacing: 0px; -webkit-text-stroke-width: 0px; text-decoration-thickness: initial; text-decoration-style: initial; text-decoration-color: initial; float: none; display: inline !important;&quot;&gt;&amp;nbsp;—&amp;nbsp;Получить доставку цветов от поставщика&lt;/span&gt;&lt;br style=&quot;border-color: var(--border-color); font-family: Helvetica; font-size: 12px; font-style: normal; font-variant-ligatures: normal; font-variant-caps: normal; font-weight: 400; letter-spacing: normal; orphans: 2; text-align: left; text-indent: 0px; text-transform: none; widows: 2; word-spacing: 0px; -webkit-text-stroke-width: 0px; text-decoration-thickness: initial; text-decoration-style: initial; text-decoration-color: initial;&quot;&gt;&lt;span style=&quot;border-color: var(--border-color); font-family: Helvetica; font-size: 12px; font-style: normal; font-variant-ligatures: normal; font-variant-caps: normal; font-weight: 400; letter-spacing: normal; orphans: 2; text-align: left; text-indent: 0px; text-transform: none; widows: 2; word-spacing: 0px; -webkit-text-stroke-width: 0px; text-decoration-thickness: initial; text-decoration-style: initial; text-decoration-color: initial; float: none; display: inline !important;&quot;&gt;&amp;nbsp;—&amp;nbsp;&lt;/span&gt;&lt;span style=&quot;border-color: var(--border-color); font-family: Helvetica; font-size: 12px; font-style: normal; font-variant-ligatures: normal; font-variant-caps: normal; font-weight: 400; letter-spacing: normal; orphans: 2; text-align: left; text-indent: 0px; text-transform: none; widows: 2; word-spacing: 0px; -webkit-text-stroke-width: 0px; text-decoration-thickness: initial; text-decoration-style: initial; text-decoration-color: initial;&quot;&gt;Проверить качество и свежесть&lt;br style=&quot;border-color: var(--border-color);&quot;&gt;&lt;/span&gt;&lt;span style=&quot;border-color: var(--border-color); font-family: Helvetica; font-size: 12px; font-style: normal; font-variant-ligatures: normal; font-variant-caps: normal; font-weight: 400; letter-spacing: normal; orphans: 2; text-align: left; text-indent: 0px; text-transform: none; widows: 2; word-spacing: 0px; -webkit-text-stroke-width: 0px; text-decoration-thickness: initial; text-decoration-style: initial; text-decoration-color: initial; float: none; display: inline !important;&quot;&gt;&amp;nbsp;—&amp;nbsp;Оценить эффективность работы поставщика (выставить рейтинг)&lt;/span&gt;&lt;br style=&quot;border-color: var(--border-color); font-family: Helvetica; font-size: 12px; font-style: normal; font-variant-ligatures: normal; font-variant-caps: normal; font-weight: 400; letter-spacing: normal; orphans: 2; text-align: left; text-indent: 0px; text-transform: none; widows: 2; word-spacing: 0px; -webkit-text-stroke-width: 0px; text-decoration-thickness: initial; text-decoration-style: initial; text-decoration-color: initial;&quot;&gt;&lt;span style=&quot;border-color: var(--border-color); font-family: Helvetica; font-size: 12px; font-style: normal; font-variant-ligatures: normal; font-variant-caps: normal; font-weight: 400; letter-spacing: normal; orphans: 2; text-align: left; text-indent: 0px; text-transform: none; widows: 2; word-spacing: 0px; -webkit-text-stroke-width: 0px; text-decoration-thickness: initial; text-decoration-style: initial; text-decoration-color: initial; float: none; display: inline !important;&quot;&gt;&amp;nbsp;— Провести классификацию цветов (тип, цвет)&lt;/span&gt;&lt;br style=&quot;border-color: var(--border-color); font-family: Helvetica; font-size: 12px; font-style: normal; font-variant-ligatures: normal; font-variant-caps: normal; font-weight: 400; letter-spacing: normal; orphans: 2; text-align: left; text-indent: 0px; text-transform: none; widows: 2; word-spacing: 0px; -webkit-text-stroke-width: 0px; text-decoration-thickness: initial; text-decoration-style: initial; text-decoration-color: initial;&quot;&gt;&lt;span style=&quot;border-color: var(--border-color); font-family: Helvetica; font-size: 12px; font-style: normal; font-variant-ligatures: normal; font-variant-caps: normal; font-weight: 400; letter-spacing: normal; orphans: 2; text-align: left; text-indent: 0px; text-transform: none; widows: 2; word-spacing: 0px; -webkit-text-stroke-width: 0px; text-decoration-thickness: initial; text-decoration-style: initial; text-decoration-color: initial; float: none; display: inline !important;&quot;&gt;&amp;nbsp;—&amp;nbsp;&lt;/span&gt;&lt;span style=&quot;border-color: var(--border-color); font-family: Helvetica; font-size: 12px; font-style: normal; font-variant-ligatures: normal; font-variant-caps: normal; font-weight: 400; letter-spacing: normal; orphans: 2; text-align: left; text-indent: 0px; text-transform: none; widows: 2; word-spacing: 0px; -webkit-text-stroke-width: 0px; text-decoration-thickness: initial; text-decoration-style: initial; text-decoration-color: initial;&quot;&gt;Обновить запасы с указанием поставщика, количества и стоимости (увеличить кол-во единиц после доставки)&lt;br style=&quot;border-color: var(--border-color);&quot;&gt;&lt;/span&gt;&lt;span style=&quot;border-color: var(--border-color); font-family: Helvetica; font-size: 12px; font-style: normal; font-variant-ligatures: normal; font-variant-caps: normal; font-weight: 400; letter-spacing: normal; orphans: 2; text-align: left; text-indent: 0px; text-transform: none; widows: 2; word-spacing: 0px; -webkit-text-stroke-width: 0px; text-decoration-thickness: initial; text-decoration-style: initial; text-decoration-color: initial; float: none; display: inline !important;&quot;&gt;&amp;nbsp;— Проверить оповещения о низком запасе&lt;/span&gt;" style="text;whiteSpace=wrap;html=1;fillColor=#f5f5f5;fontColor=#333333;spacing=2;labelBackgroundColor=none;strokeColor=none;" parent="1" vertex="1">
          <mxGeometry x="369" y="680" width="422" height="135" as="geometry" />
        </mxCell>
        <mxCell id="2QYO7XHkF7nEgOcJqNKI-3" style="edgeStyle=orthogonalEdgeStyle;rounded=0;orthogonalLoop=1;jettySize=auto;html=1;" parent="1" source="2QYO7XHkF7nEgOcJqNKI-4" edge="1">
          <mxGeometry relative="1" as="geometry">
            <mxPoint x="128" y="420" as="targetPoint" />
          </mxGeometry>
        </mxCell>
        <mxCell id="2QYO7XHkF7nEgOcJqNKI-4" value="" style="ellipse;whiteSpace=wrap;html=1;aspect=fixed;fillColor=#008a00;fontColor=#ffffff;strokeColor=#005700;" parent="1" vertex="1">
          <mxGeometry x="68" y="410" width="20" height="20" as="geometry" />
        </mxCell>
        <mxCell id="2QYO7XHkF7nEgOcJqNKI-5" style="edgeStyle=orthogonalEdgeStyle;rounded=0;orthogonalLoop=1;jettySize=auto;html=1;entryX=0;entryY=0.5;entryDx=0;entryDy=0;" parent="1" source="2QYO7XHkF7nEgOcJqNKI-6" target="2QYO7XHkF7nEgOcJqNKI-27" edge="1">
          <mxGeometry relative="1" as="geometry" />
        </mxCell>
        <mxCell id="2QYO7XHkF7nEgOcJqNKI-6" value="Проверить&lt;br&gt;&amp;nbsp;наличие" style="rounded=1;whiteSpace=wrap;html=1;" parent="1" vertex="1">
          <mxGeometry x="380" y="458" width="90" height="60" as="geometry" />
        </mxCell>
        <mxCell id="2QYO7XHkF7nEgOcJqNKI-7" value="Пришел&lt;br&gt;клиент" style="text;html=1;align=center;verticalAlign=middle;resizable=0;points=[];autosize=1;strokeColor=none;fillColor=none;" parent="1" vertex="1">
          <mxGeometry x="42" y="444" width="70" height="40" as="geometry" />
        </mxCell>
        <mxCell id="2QYO7XHkF7nEgOcJqNKI-8" style="edgeStyle=orthogonalEdgeStyle;rounded=0;orthogonalLoop=1;jettySize=auto;html=1;exitX=1;exitY=0.5;exitDx=0;exitDy=0;" parent="1" source="2QYO7XHkF7nEgOcJqNKI-9" target="2QYO7XHkF7nEgOcJqNKI-20" edge="1">
          <mxGeometry relative="1" as="geometry">
            <mxPoint x="510" y="350" as="targetPoint" />
          </mxGeometry>
        </mxCell>
        <mxCell id="2QYO7XHkF7nEgOcJqNKI-9" value="" style="ellipse;whiteSpace=wrap;html=1;aspect=fixed;" parent="1" vertex="1">
          <mxGeometry x="310" y="340" width="20" height="20" as="geometry" />
        </mxCell>
        <mxCell id="2QYO7XHkF7nEgOcJqNKI-10" style="edgeStyle=orthogonalEdgeStyle;rounded=0;orthogonalLoop=1;jettySize=auto;html=1;exitX=1;exitY=0.5;exitDx=0;exitDy=0;entryX=0;entryY=0.5;entryDx=0;entryDy=0;" parent="1" source="2QYO7XHkF7nEgOcJqNKI-11" target="2QYO7XHkF7nEgOcJqNKI-14" edge="1">
          <mxGeometry relative="1" as="geometry" />
        </mxCell>
        <mxCell id="2QYO7XHkF7nEgOcJqNKI-11" value="Получить&lt;br&gt;запрос" style="rounded=1;whiteSpace=wrap;html=1;" parent="1" vertex="1">
          <mxGeometry x="129" y="390" width="90" height="60" as="geometry" />
        </mxCell>
        <mxCell id="2QYO7XHkF7nEgOcJqNKI-12" style="edgeStyle=orthogonalEdgeStyle;rounded=0;orthogonalLoop=1;jettySize=auto;html=1;exitX=0.5;exitY=0;exitDx=0;exitDy=0;" parent="1" source="2QYO7XHkF7nEgOcJqNKI-14" edge="1">
          <mxGeometry relative="1" as="geometry">
            <mxPoint x="308" y="350" as="targetPoint" />
            <Array as="points">
              <mxPoint x="281" y="350" />
            </Array>
          </mxGeometry>
        </mxCell>
        <mxCell id="2QYO7XHkF7nEgOcJqNKI-13" style="edgeStyle=orthogonalEdgeStyle;rounded=0;orthogonalLoop=1;jettySize=auto;html=1;exitX=0.5;exitY=1;exitDx=0;exitDy=0;entryX=0;entryY=0.5;entryDx=0;entryDy=0;" parent="1" source="2QYO7XHkF7nEgOcJqNKI-14" target="2QYO7XHkF7nEgOcJqNKI-17" edge="1">
          <mxGeometry relative="1" as="geometry">
            <mxPoint x="308" y="480" as="targetPoint" />
          </mxGeometry>
        </mxCell>
        <mxCell id="2QYO7XHkF7nEgOcJqNKI-14" value="" style="rhombus;whiteSpace=wrap;html=1;" parent="1" vertex="1">
          <mxGeometry x="268" y="407.5" width="25" height="25" as="geometry" />
        </mxCell>
        <mxCell id="2QYO7XHkF7nEgOcJqNKI-15" value="Требуется &lt;br&gt;консультация" style="text;html=1;align=center;verticalAlign=middle;resizable=0;points=[];autosize=1;strokeColor=none;fillColor=none;" parent="1" vertex="1">
          <mxGeometry x="266" y="290" width="100" height="40" as="geometry" />
        </mxCell>
        <mxCell id="2QYO7XHkF7nEgOcJqNKI-16" style="edgeStyle=orthogonalEdgeStyle;rounded=0;orthogonalLoop=1;jettySize=auto;html=1;exitX=1;exitY=0.5;exitDx=0;exitDy=0;entryX=0;entryY=0.5;entryDx=0;entryDy=0;" parent="1" source="2QYO7XHkF7nEgOcJqNKI-17" target="2QYO7XHkF7nEgOcJqNKI-6" edge="1">
          <mxGeometry relative="1" as="geometry" />
        </mxCell>
        <mxCell id="2QYO7XHkF7nEgOcJqNKI-17" value="" style="ellipse;whiteSpace=wrap;html=1;aspect=fixed;" parent="1" vertex="1">
          <mxGeometry x="310" y="478" width="20" height="20" as="geometry" />
        </mxCell>
        <mxCell id="2QYO7XHkF7nEgOcJqNKI-18" value="Не требуется &lt;br&gt;консультация" style="text;html=1;align=center;verticalAlign=middle;resizable=0;points=[];autosize=1;strokeColor=none;fillColor=none;" parent="1" vertex="1">
          <mxGeometry x="266" y="508" width="100" height="40" as="geometry" />
        </mxCell>
        <mxCell id="2QYO7XHkF7nEgOcJqNKI-19" style="edgeStyle=orthogonalEdgeStyle;rounded=0;orthogonalLoop=1;jettySize=auto;html=1;exitX=1;exitY=0.5;exitDx=0;exitDy=0;entryX=0;entryY=0.5;entryDx=0;entryDy=0;" parent="1" source="2QYO7XHkF7nEgOcJqNKI-20" target="2QYO7XHkF7nEgOcJqNKI-34" edge="1">
          <mxGeometry relative="1" as="geometry" />
        </mxCell>
        <mxCell id="2QYO7XHkF7nEgOcJqNKI-20" value="Провести&lt;br&gt;презентацию" style="rounded=1;whiteSpace=wrap;html=1;" parent="1" vertex="1">
          <mxGeometry x="513" y="320" width="90" height="60" as="geometry" />
        </mxCell>
        <mxCell id="2QYO7XHkF7nEgOcJqNKI-21" style="edgeStyle=orthogonalEdgeStyle;rounded=0;orthogonalLoop=1;jettySize=auto;html=1;exitX=0.5;exitY=0;exitDx=0;exitDy=0;" parent="1" source="2QYO7XHkF7nEgOcJqNKI-22" edge="1">
          <mxGeometry relative="1" as="geometry">
            <mxPoint x="560.2857142857142" y="380" as="targetPoint" />
            <mxPoint x="560" y="450" as="sourcePoint" />
            <Array as="points" />
          </mxGeometry>
        </mxCell>
        <mxCell id="2QYO7XHkF7nEgOcJqNKI-22" value="" style="ellipse;whiteSpace=wrap;html=1;aspect=fixed;" parent="1" vertex="1">
          <mxGeometry x="550" y="420" width="20" height="20" as="geometry" />
        </mxCell>
        <mxCell id="2QYO7XHkF7nEgOcJqNKI-23" style="edgeStyle=orthogonalEdgeStyle;rounded=0;orthogonalLoop=1;jettySize=auto;html=1;exitX=1;exitY=0.5;exitDx=0;exitDy=0;entryX=0;entryY=0.5;entryDx=0;entryDy=0;" parent="1" source="2QYO7XHkF7nEgOcJqNKI-24" target="2QYO7XHkF7nEgOcJqNKI-38" edge="1">
          <mxGeometry relative="1" as="geometry">
            <mxPoint x="630" y="550" as="targetPoint" />
          </mxGeometry>
        </mxCell>
        <mxCell id="2QYO7XHkF7nEgOcJqNKI-24" value="" style="ellipse;whiteSpace=wrap;html=1;aspect=fixed;" parent="1" vertex="1">
          <mxGeometry x="550" y="540" width="20" height="20" as="geometry" />
        </mxCell>
        <mxCell id="2QYO7XHkF7nEgOcJqNKI-25" style="edgeStyle=orthogonalEdgeStyle;rounded=0;orthogonalLoop=1;jettySize=auto;html=1;exitX=0.5;exitY=0;exitDx=0;exitDy=0;entryX=0;entryY=0.5;entryDx=0;entryDy=0;" parent="1" source="2QYO7XHkF7nEgOcJqNKI-27" edge="1">
          <mxGeometry relative="1" as="geometry">
            <mxPoint x="550" y="429.99999999999994" as="targetPoint" />
            <mxPoint x="519.5" y="467.5" as="sourcePoint" />
            <Array as="points">
              <mxPoint x="520" y="430" />
            </Array>
          </mxGeometry>
        </mxCell>
        <mxCell id="2QYO7XHkF7nEgOcJqNKI-26" style="edgeStyle=orthogonalEdgeStyle;rounded=0;orthogonalLoop=1;jettySize=auto;html=1;exitX=0.5;exitY=1;exitDx=0;exitDy=0;entryX=-0.036;entryY=0.62;entryDx=0;entryDy=0;entryPerimeter=0;" parent="1" source="2QYO7XHkF7nEgOcJqNKI-27" edge="1">
          <mxGeometry relative="1" as="geometry">
            <mxPoint x="550" y="550.4" as="targetPoint" />
            <mxPoint x="520.22" y="482" as="sourcePoint" />
            <Array as="points">
              <mxPoint x="519" y="550" />
            </Array>
          </mxGeometry>
        </mxCell>
        <mxCell id="2QYO7XHkF7nEgOcJqNKI-27" value="" style="rhombus;whiteSpace=wrap;html=1;" parent="1" vertex="1">
          <mxGeometry x="507" y="475.5" width="25" height="25" as="geometry" />
        </mxCell>
        <mxCell id="2QYO7XHkF7nEgOcJqNKI-28" value="Нет" style="text;html=1;align=center;verticalAlign=middle;resizable=0;points=[];autosize=1;strokeColor=none;fillColor=none;" parent="1" vertex="1">
          <mxGeometry x="540" y="439" width="40" height="30" as="geometry" />
        </mxCell>
        <mxCell id="2QYO7XHkF7nEgOcJqNKI-29" value="Есть" style="text;html=1;align=center;verticalAlign=middle;resizable=0;points=[];autosize=1;strokeColor=none;fillColor=none;" parent="1" vertex="1">
          <mxGeometry x="535" y="560" width="50" height="30" as="geometry" />
        </mxCell>
        <mxCell id="2QYO7XHkF7nEgOcJqNKI-30" style="edgeStyle=orthogonalEdgeStyle;rounded=0;orthogonalLoop=1;jettySize=auto;html=1;exitX=1;exitY=0.5;exitDx=0;exitDy=0;entryX=0;entryY=0.5;entryDx=0;entryDy=0;" parent="1" source="2QYO7XHkF7nEgOcJqNKI-31" target="2QYO7XHkF7nEgOcJqNKI-54" edge="1">
          <mxGeometry relative="1" as="geometry" />
        </mxCell>
        <mxCell id="2QYO7XHkF7nEgOcJqNKI-31" value="Собрать&lt;br&gt;заказ" style="rounded=1;whiteSpace=wrap;html=1;" parent="1" vertex="1">
          <mxGeometry x="749" y="520" width="82" height="60" as="geometry" />
        </mxCell>
        <mxCell id="2QYO7XHkF7nEgOcJqNKI-32" style="edgeStyle=orthogonalEdgeStyle;rounded=0;orthogonalLoop=1;jettySize=auto;html=1;exitX=1;exitY=0.5;exitDx=0;exitDy=0;entryX=0.5;entryY=0;entryDx=0;entryDy=0;" parent="1" target="2QYO7XHkF7nEgOcJqNKI-38" edge="1">
          <mxGeometry relative="1" as="geometry">
            <mxPoint x="619.2413793103449" y="540" as="targetPoint" />
            <Array as="points">
              <mxPoint x="679" y="350" />
              <mxPoint x="679" y="541" />
            </Array>
            <mxPoint x="632" y="350" as="sourcePoint" />
          </mxGeometry>
        </mxCell>
        <mxCell id="2QYO7XHkF7nEgOcJqNKI-33" style="edgeStyle=orthogonalEdgeStyle;rounded=0;orthogonalLoop=1;jettySize=auto;html=1;exitX=0.5;exitY=0;exitDx=0;exitDy=0;entryX=0.5;entryY=1;entryDx=0;entryDy=0;" parent="1" edge="1">
          <mxGeometry relative="1" as="geometry">
            <mxPoint x="638.5" y="337.5" as="sourcePoint" />
            <mxPoint x="639" y="280" as="targetPoint" />
            <Array as="points">
              <mxPoint x="639" y="320" />
              <mxPoint x="639" y="320" />
            </Array>
          </mxGeometry>
        </mxCell>
        <mxCell id="2QYO7XHkF7nEgOcJqNKI-34" value="" style="rhombus;whiteSpace=wrap;html=1;" parent="1" vertex="1">
          <mxGeometry x="627" y="337.5" width="25" height="25" as="geometry" />
        </mxCell>
        <mxCell id="2QYO7XHkF7nEgOcJqNKI-35" value="Клиент&lt;br&gt;сомневается" style="text;html=1;align=center;verticalAlign=middle;resizable=0;points=[];autosize=1;strokeColor=none;fillColor=none;" parent="1" vertex="1">
          <mxGeometry x="535" y="249" width="90" height="40" as="geometry" />
        </mxCell>
        <mxCell id="2QYO7XHkF7nEgOcJqNKI-36" value="" style="ellipse;whiteSpace=wrap;html=1;aspect=fixed;fillColor=#fa6800;fontColor=#000000;strokeColor=#C73500;" parent="1" vertex="1">
          <mxGeometry x="629" y="260" width="20" height="20" as="geometry" />
        </mxCell>
        <mxCell id="2QYO7XHkF7nEgOcJqNKI-37" style="edgeStyle=orthogonalEdgeStyle;rounded=0;orthogonalLoop=1;jettySize=auto;html=1;exitX=1;exitY=0.5;exitDx=0;exitDy=0;entryX=0;entryY=0.5;entryDx=0;entryDy=0;" parent="1" source="2QYO7XHkF7nEgOcJqNKI-38" target="2QYO7XHkF7nEgOcJqNKI-31" edge="1">
          <mxGeometry relative="1" as="geometry" />
        </mxCell>
        <mxCell id="2QYO7XHkF7nEgOcJqNKI-38" value="" style="ellipse;whiteSpace=wrap;html=1;aspect=fixed;fillColor=#1ba1e2;fontColor=#ffffff;strokeColor=#006EAF;" parent="1" vertex="1">
          <mxGeometry x="669.5" y="540.5" width="20" height="20" as="geometry" />
        </mxCell>
        <mxCell id="2QYO7XHkF7nEgOcJqNKI-39" value="Клиент&lt;br&gt;готов оплатить&lt;br&gt;товар" style="text;html=1;align=center;verticalAlign=middle;resizable=0;points=[];autosize=1;strokeColor=none;fillColor=none;" parent="1" vertex="1">
          <mxGeometry x="626.5" y="557.5" width="110" height="60" as="geometry" />
        </mxCell>
        <mxCell id="2QYO7XHkF7nEgOcJqNKI-40" style="edgeStyle=orthogonalEdgeStyle;rounded=0;orthogonalLoop=1;jettySize=auto;html=1;exitX=1;exitY=0.5;exitDx=0;exitDy=0;entryX=0;entryY=0.5;entryDx=0;entryDy=0;" parent="1" source="2QYO7XHkF7nEgOcJqNKI-41" target="2QYO7XHkF7nEgOcJqNKI-50" edge="1">
          <mxGeometry relative="1" as="geometry" />
        </mxCell>
        <mxCell id="2QYO7XHkF7nEgOcJqNKI-41" value="Работа&lt;br&gt;с возражениями" style="rounded=1;whiteSpace=wrap;html=1;" parent="1" vertex="1">
          <mxGeometry x="570" y="150" width="110" height="60" as="geometry" />
        </mxCell>
        <mxCell id="2QYO7XHkF7nEgOcJqNKI-42" value="" style="endArrow=none;dashed=1;html=1;rounded=0;entryX=1;entryY=0.5;entryDx=0;entryDy=0;dashPattern=8 8;startArrow=blockThin;startFill=0;exitX=0;exitY=0.5;exitDx=0;exitDy=0;" parent="1" source="2QYO7XHkF7nEgOcJqNKI-41" target="2QYO7XHkF7nEgOcJqNKI-44" edge="1">
          <mxGeometry width="50" height="50" relative="1" as="geometry">
            <mxPoint x="500" y="90" as="sourcePoint" />
            <mxPoint x="568" y="90" as="targetPoint" />
          </mxGeometry>
        </mxCell>
        <mxCell id="2QYO7XHkF7nEgOcJqNKI-43" style="edgeStyle=orthogonalEdgeStyle;rounded=0;orthogonalLoop=1;jettySize=auto;html=1;exitX=0.5;exitY=0;exitDx=0;exitDy=0;entryX=0.63;entryY=0.983;entryDx=0;entryDy=0;entryPerimeter=0;" parent="1" source="2QYO7XHkF7nEgOcJqNKI-36" target="2QYO7XHkF7nEgOcJqNKI-41" edge="1">
          <mxGeometry relative="1" as="geometry" />
        </mxCell>
        <mxCell id="2QYO7XHkF7nEgOcJqNKI-44" value="Скрипт&amp;nbsp;&lt;br&gt;для продавца" style="rounded=0;whiteSpace=wrap;html=1;" parent="1" vertex="1">
          <mxGeometry x="420" y="150" width="100" height="60" as="geometry" />
        </mxCell>
        <mxCell id="2QYO7XHkF7nEgOcJqNKI-45" value="" style="ellipse;whiteSpace=wrap;html=1;aspect=fixed;fillColor=#d80073;strokeColor=#A50040;fontColor=#ffffff;" parent="1" vertex="1">
          <mxGeometry x="778.5" y="120" width="20" height="20" as="geometry" />
        </mxCell>
        <mxCell id="2QYO7XHkF7nEgOcJqNKI-46" style="edgeStyle=orthogonalEdgeStyle;rounded=0;orthogonalLoop=1;jettySize=auto;html=1;entryX=0.5;entryY=0;entryDx=0;entryDy=0;" parent="1" source="2QYO7XHkF7nEgOcJqNKI-47" target="2QYO7XHkF7nEgOcJqNKI-31" edge="1">
          <mxGeometry relative="1" as="geometry" />
        </mxCell>
        <mxCell id="2QYO7XHkF7nEgOcJqNKI-47" value="" style="ellipse;whiteSpace=wrap;html=1;aspect=fixed;fillColor=#1ba1e2;strokeColor=#006EAF;fontColor=#ffffff;" parent="1" vertex="1">
          <mxGeometry x="780.5" y="220" width="20" height="20" as="geometry" />
        </mxCell>
        <mxCell id="2QYO7XHkF7nEgOcJqNKI-48" style="edgeStyle=orthogonalEdgeStyle;rounded=0;orthogonalLoop=1;jettySize=auto;html=1;entryX=0;entryY=0.5;entryDx=0;entryDy=0;exitX=0.5;exitY=0;exitDx=0;exitDy=0;" parent="1" source="2QYO7XHkF7nEgOcJqNKI-50" target="2QYO7XHkF7nEgOcJqNKI-45" edge="1">
          <mxGeometry relative="1" as="geometry">
            <mxPoint x="755.5" y="129.99999999999994" as="targetPoint" />
            <mxPoint x="725" y="168" as="sourcePoint" />
          </mxGeometry>
        </mxCell>
        <mxCell id="2QYO7XHkF7nEgOcJqNKI-49" style="edgeStyle=orthogonalEdgeStyle;rounded=0;orthogonalLoop=1;jettySize=auto;html=1;exitX=0.5;exitY=1;exitDx=0;exitDy=0;entryX=0;entryY=0.5;entryDx=0;entryDy=0;" parent="1" source="2QYO7XHkF7nEgOcJqNKI-50" target="2QYO7XHkF7nEgOcJqNKI-47" edge="1">
          <mxGeometry relative="1" as="geometry">
            <mxPoint x="755.5" y="250.39999999999998" as="targetPoint" />
            <mxPoint x="725.72" y="182" as="sourcePoint" />
            <Array as="points">
              <mxPoint x="730" y="192" />
              <mxPoint x="730" y="230" />
            </Array>
          </mxGeometry>
        </mxCell>
        <mxCell id="2QYO7XHkF7nEgOcJqNKI-50" value="" style="rhombus;whiteSpace=wrap;html=1;" parent="1" vertex="1">
          <mxGeometry x="716.5" y="167.5" width="25" height="25" as="geometry" />
        </mxCell>
        <mxCell id="2QYO7XHkF7nEgOcJqNKI-51" value="Клиент&lt;br&gt;отказался&amp;nbsp;" style="text;html=1;align=center;verticalAlign=middle;resizable=0;points=[];autosize=1;strokeColor=none;fillColor=none;" parent="1" vertex="1">
          <mxGeometry x="749" y="77" width="80" height="40" as="geometry" />
        </mxCell>
        <mxCell id="2QYO7XHkF7nEgOcJqNKI-52" value="Клиент&lt;br&gt;готов оплатить&lt;br&gt;товар" style="text;html=1;align=center;verticalAlign=middle;resizable=0;points=[];autosize=1;strokeColor=none;fillColor=none;" parent="1" vertex="1">
          <mxGeometry x="733.5" y="153" width="110" height="60" as="geometry" />
        </mxCell>
        <mxCell id="2QYO7XHkF7nEgOcJqNKI-53" style="edgeStyle=orthogonalEdgeStyle;rounded=0;orthogonalLoop=1;jettySize=auto;html=1;exitX=1;exitY=0.5;exitDx=0;exitDy=0;entryX=0;entryY=0.5;entryDx=0;entryDy=0;" parent="1" source="2QYO7XHkF7nEgOcJqNKI-54" target="2QYO7XHkF7nEgOcJqNKI-55" edge="1">
          <mxGeometry relative="1" as="geometry" />
        </mxCell>
        <mxCell id="2QYO7XHkF7nEgOcJqNKI-54" value="Оформить&lt;br&gt;сделку" style="rounded=1;whiteSpace=wrap;html=1;" parent="1" vertex="1">
          <mxGeometry x="889" y="520" width="90" height="60" as="geometry" />
        </mxCell>
        <mxCell id="2QYO7XHkF7nEgOcJqNKI-55" value="" style="ellipse;whiteSpace=wrap;html=1;aspect=fixed;fillColor=#1ba1e2;fontColor=#ffffff;strokeColor=#006EAF;" parent="1" vertex="1">
          <mxGeometry x="1030" y="539.5" width="20" height="20" as="geometry" />
        </mxCell>
        <mxCell id="2QYO7XHkF7nEgOcJqNKI-56" value="Сделка" style="text;html=1;align=center;verticalAlign=middle;resizable=0;points=[];autosize=1;strokeColor=none;fillColor=none;" parent="1" vertex="1">
          <mxGeometry x="1012" y="557.5" width="60" height="30" as="geometry" />
        </mxCell>
        <mxCell id="2QYO7XHkF7nEgOcJqNKI-57" value="Создать новую запись о покупателе" style="rounded=1;whiteSpace=wrap;html=1;" parent="1" vertex="1">
          <mxGeometry x="880" y="423.5" width="111" height="60" as="geometry" />
        </mxCell>
        <mxCell id="2QYO7XHkF7nEgOcJqNKI-58" value="Обновить параметр &quot;Предпочтения&quot;" style="rounded=1;whiteSpace=wrap;html=1;" parent="1" vertex="1">
          <mxGeometry x="880" y="331" width="111" height="60" as="geometry" />
        </mxCell>
        <mxCell id="2QYO7XHkF7nEgOcJqNKI-59" value="Собрать информацию &lt;br&gt;о покупателе" style="rounded=1;whiteSpace=wrap;html=1;" parent="1" vertex="1">
          <mxGeometry x="880" y="240" width="111" height="60" as="geometry" />
        </mxCell>
        <mxCell id="2QYO7XHkF7nEgOcJqNKI-60" value="" style="endArrow=none;dashed=1;html=1;rounded=0;entryX=0.5;entryY=1;entryDx=0;entryDy=0;" parent="1" source="2QYO7XHkF7nEgOcJqNKI-58" target="2QYO7XHkF7nEgOcJqNKI-59" edge="1">
          <mxGeometry width="50" height="50" relative="1" as="geometry">
            <mxPoint x="450" y="310" as="sourcePoint" />
            <mxPoint x="500" y="260" as="targetPoint" />
          </mxGeometry>
        </mxCell>
        <mxCell id="2QYO7XHkF7nEgOcJqNKI-61" value="" style="endArrow=none;dashed=1;html=1;rounded=0;entryX=0.5;entryY=1;entryDx=0;entryDy=0;exitX=0.5;exitY=0;exitDx=0;exitDy=0;" parent="1" source="2QYO7XHkF7nEgOcJqNKI-57" target="2QYO7XHkF7nEgOcJqNKI-58" edge="1">
          <mxGeometry width="50" height="50" relative="1" as="geometry">
            <mxPoint x="1050.5" y="331" as="sourcePoint" />
            <mxPoint x="1050.5" y="300" as="targetPoint" />
          </mxGeometry>
        </mxCell>
        <mxCell id="2QYO7XHkF7nEgOcJqNKI-62" value="" style="endArrow=none;dashed=1;html=1;rounded=0;entryX=0.5;entryY=1;entryDx=0;entryDy=0;" parent="1" target="2QYO7XHkF7nEgOcJqNKI-57" edge="1">
          <mxGeometry width="50" height="50" relative="1" as="geometry">
            <mxPoint x="936" y="520" as="sourcePoint" />
            <mxPoint x="1060.5" y="391" as="targetPoint" />
          </mxGeometry>
        </mxCell>
        <mxCell id="2QYO7XHkF7nEgOcJqNKI-63" value="БИЗНЕС-ПРОЦЕССЫ ЦВЕТОЧНОЙ &#xa;ФИРМЫ" style="text;whiteSpace=wrap;fontStyle=1;fontSize=19;fontColor=#1BA1E2;" parent="1" vertex="1">
          <mxGeometry x="880" y="52" width="243" height="52" as="geometry" />
        </mxCell>
        <mxCell id="2QYO7XHkF7nEgOcJqNKI-64" value="&lt;div style=&quot;border-color: var(--border-color);&quot;&gt;&lt;span style=&quot;background-color: initial;&quot;&gt;&amp;nbsp; &amp;nbsp; -- Получить запрос от покупателя&lt;/span&gt;&lt;br&gt;&lt;/div&gt;&lt;div style=&quot;border-color: var(--border-color);&quot;&gt;&amp;nbsp; &amp;nbsp; -- Помочь с выбором (если требуется)&lt;/div&gt;&lt;div style=&quot;border-color: var(--border-color);&quot;&gt;&lt;div style=&quot;border-color: var(--border-color);&quot;&gt;&amp;nbsp; &amp;nbsp; -- Собрать заказ&lt;/div&gt;&lt;/div&gt;&lt;div style=&quot;border-color: var(--border-color);&quot;&gt;&amp;nbsp; &amp;nbsp; -- Провести оплату покупки (фиксируется операция купли-продажи и обновляются остатки цветов)&lt;/div&gt;&lt;div style=&quot;border-color: var(--border-color);&quot;&gt;&amp;nbsp; &amp;nbsp; -- Выдать товар покупателю&lt;/div&gt;&lt;div style=&quot;border-color: var(--border-color);&quot;&gt;&amp;nbsp; &amp;nbsp; -- Собрать информацию о покупателе&lt;br style=&quot;border-color: var(--border-color);&quot;&gt;&lt;/div&gt;&lt;div style=&quot;border-color: var(--border-color);&quot;&gt;&lt;span style=&quot;border-color: var(--border-color); background-color: initial;&quot;&gt;&amp;nbsp; &amp;nbsp; -- Обновить параметр &quot;Предпочтения&quot;&lt;/span&gt;&lt;br style=&quot;border-color: var(--border-color);&quot;&gt;&lt;/div&gt;&lt;div style=&quot;border-color: var(--border-color);&quot;&gt;&lt;div style=&quot;border-color: var(--border-color);&quot;&gt;&amp;nbsp; &amp;nbsp; -- Создать новую запись о покупателе&lt;br style=&quot;border-color: var(--border-color);&quot;&gt;(при необходимости)&lt;/div&gt;&lt;/div&gt;&lt;div style=&quot;border-color: var(--border-color);&quot;&gt;&lt;br style=&quot;border-color: var(--border-color); color: rgb(0, 0, 0); font-family: Helvetica; font-size: 12px; font-style: normal; font-variant-ligatures: normal; font-variant-caps: normal; font-weight: 400; letter-spacing: normal; orphans: 2; text-align: left; text-indent: 0px; text-transform: none; widows: 2; word-spacing: 0px; -webkit-text-stroke-width: 0px; background-color: rgb(251, 251, 251); text-decoration-thickness: initial; text-decoration-style: initial; text-decoration-color: initial;&quot;&gt;&lt;/div&gt;" style="text;whiteSpace=wrap;html=1;" parent="1" vertex="1">
          <mxGeometry x="68" y="111" width="315" height="223" as="geometry" />
        </mxCell>
        <mxCell id="2QYO7XHkF7nEgOcJqNKI-65" value="&lt;div style=&quot;border-color: var(--border-color); font-family: Helvetica; font-size: 12px; font-style: normal; font-variant-ligatures: normal; font-variant-caps: normal; font-weight: 400; letter-spacing: normal; orphans: 2; text-align: left; text-indent: 0px; text-transform: none; widows: 2; word-spacing: 0px; -webkit-text-stroke-width: 0px; text-decoration-thickness: initial; text-decoration-style: initial; text-decoration-color: initial;&quot;&gt;&lt;b style=&quot;border-color: var(--border-color);&quot;&gt;Закупка цветов у поставщиков:&lt;/b&gt;&lt;/div&gt;&lt;div style=&quot;border-color: var(--border-color); font-family: Helvetica; font-size: 12px; font-style: normal; font-variant-ligatures: normal; font-variant-caps: normal; font-weight: 400; letter-spacing: normal; orphans: 2; text-align: left; text-indent: 0px; text-transform: none; widows: 2; word-spacing: 0px; -webkit-text-stroke-width: 0px; text-decoration-thickness: initial; text-decoration-style: initial; text-decoration-color: initial;&quot;&gt;&amp;nbsp;— Выбрать поставщика&lt;/div&gt;&lt;span style=&quot;border-color: var(--border-color); font-family: Helvetica; font-size: 12px; font-style: normal; font-variant-ligatures: normal; font-variant-caps: normal; font-weight: 400; letter-spacing: normal; orphans: 2; text-align: left; text-indent: 0px; text-transform: none; widows: 2; word-spacing: 0px; -webkit-text-stroke-width: 0px; text-decoration-thickness: initial; text-decoration-style: initial; text-decoration-color: initial; float: none; display: inline !important;&quot;&gt;&amp;nbsp;—&amp;nbsp;Внести поставщика в список БД (если новый)&lt;/span&gt;&lt;span style=&quot;border-color: var(--border-color); font-family: Helvetica; font-size: 12px; font-style: normal; font-variant-ligatures: normal; font-variant-caps: normal; font-weight: 400; letter-spacing: normal; orphans: 2; text-align: left; text-indent: 0px; text-transform: none; widows: 2; word-spacing: 0px; -webkit-text-stroke-width: 0px; text-decoration-thickness: initial; text-decoration-style: initial; text-decoration-color: initial;&quot;&gt;&amp;nbsp;&lt;/span&gt;&lt;br style=&quot;border-color: var(--border-color); font-family: Helvetica; font-size: 12px; font-style: normal; font-variant-ligatures: normal; font-variant-caps: normal; font-weight: 400; letter-spacing: normal; orphans: 2; text-align: left; text-indent: 0px; text-transform: none; widows: 2; word-spacing: 0px; -webkit-text-stroke-width: 0px; text-decoration-thickness: initial; text-decoration-style: initial; text-decoration-color: initial;&quot;&gt;&lt;div style=&quot;border-color: var(--border-color); font-family: Helvetica; font-size: 12px; font-style: normal; font-variant-ligatures: normal; font-variant-caps: normal; font-weight: 400; letter-spacing: normal; orphans: 2; text-align: left; text-indent: 0px; text-transform: none; widows: 2; word-spacing: 0px; -webkit-text-stroke-width: 0px; text-decoration-thickness: initial; text-decoration-style: initial; text-decoration-color: initial;&quot;&gt;&amp;nbsp;— Оформить заказ&lt;/div&gt;&lt;div style=&quot;border-color: var(--border-color); font-family: Helvetica; font-size: 12px; font-style: normal; font-variant-ligatures: normal; font-variant-caps: normal; font-weight: 400; letter-spacing: normal; orphans: 2; text-align: left; text-indent: 0px; text-transform: none; widows: 2; word-spacing: 0px; -webkit-text-stroke-width: 0px; text-decoration-thickness: initial; text-decoration-style: initial; text-decoration-color: initial;&quot;&gt;&amp;nbsp;— Оплатить заказ&lt;/div&gt;" style="text;whiteSpace=wrap;html=1;fontColor=#333333;fillColor=#f5f5f5;strokeColor=none;labelBackgroundColor=none;" parent="1" vertex="1">
          <mxGeometry x="55" y="680" width="305" height="94" as="geometry" />
        </mxCell>
        <mxCell id="2QYO7XHkF7nEgOcJqNKI-66" value="&lt;div style=&quot;border-color: var(--border-color); color: rgb(0, 0, 0); font-family: Helvetica; font-size: 12px; font-style: normal; font-variant-ligatures: normal; font-variant-caps: normal; font-weight: 400; letter-spacing: normal; orphans: 2; text-align: left; text-indent: 0px; text-transform: none; widows: 2; word-spacing: 0px; -webkit-text-stroke-width: 0px; background-color: rgb(251, 251, 251); text-decoration-thickness: initial; text-decoration-style: initial; text-decoration-color: initial;&quot;&gt;&lt;/div&gt;&lt;b&gt;&lt;font style=&quot;font-size: 19px;&quot;&gt;ПРОДАЖА ЦВЕТОВ ПОКУПАТЕЛЯМ&lt;/font&gt;&lt;/b&gt;" style="text;whiteSpace=wrap;html=1;" parent="1" vertex="1">
          <mxGeometry x="68" y="52" width="237" height="24" as="geometry" />
        </mxCell>
      </root>
    </mxGraphModel>
  </diagram>
</mxfile>
